<mxfile host="65bd71144e">
    <diagram id="MVjbQcnWWn_KTb7CdMTa" name="Page-1">
        <mxGraphModel dx="364" dy="614" grid="1" gridSize="10" guides="1" tooltips="1" connect="1" arrows="1" fold="1" page="1" pageScale="1" pageWidth="19000" pageHeight="20000" math="0" shadow="0">
            <root>
                <mxCell id="0"/>
                <mxCell id="1" parent="0"/>
                <mxCell id="42" value="&lt;font style=&quot;font-size: 18px&quot;&gt;Internet&lt;/font&gt;" style="ellipse;shape=cloud;whiteSpace=wrap;html=1;fillColor=#0050ef;fontColor=#ffffff;strokeColor=#001DBC;" parent="1" vertex="1">
                    <mxGeometry x="6850" y="1870" width="450" height="410" as="geometry"/>
                </mxCell>
                <mxCell id="43" value="" style="endArrow=classic;startArrow=classic;html=1;rounded=0;fontSize=18;exitX=0.55;exitY=0.95;exitDx=0;exitDy=0;exitPerimeter=0;" parent="1" source="42" edge="1">
                    <mxGeometry width="50" height="50" relative="1" as="geometry">
                        <mxPoint x="7330" y="2240" as="sourcePoint"/>
                        <mxPoint x="7100" y="2450" as="targetPoint"/>
                    </mxGeometry>
                </mxCell>
                <mxCell id="44" value="&lt;font color=&quot;#000000&quot;&gt;ReactJs + Tailwind Css Frontend&lt;/font&gt;" style="rounded=0;whiteSpace=wrap;html=1;fontSize=18;fillColor=#dae8fc;strokeColor=#6c8ebf;" parent="1" vertex="1">
                    <mxGeometry x="6920" y="2450" width="350" height="200" as="geometry"/>
                </mxCell>
                <mxCell id="45" value="" style="endArrow=classic;startArrow=classic;html=1;rounded=0;fontSize=18;entryX=0.5;entryY=1;entryDx=0;entryDy=0;" parent="1" target="44" edge="1">
                    <mxGeometry width="50" height="50" relative="1" as="geometry">
                        <mxPoint x="7095" y="2850" as="sourcePoint"/>
                        <mxPoint x="7100" y="2470" as="targetPoint"/>
                    </mxGeometry>
                </mxCell>
                <mxCell id="46" value="" style="endArrow=classic;startArrow=classic;html=1;rounded=0;fontSize=18;entryX=-0.002;entryY=0.588;entryDx=0;entryDy=0;entryPerimeter=0;exitX=0.165;exitY=-0.01;exitDx=0;exitDy=0;exitPerimeter=0;" parent="1" source="47" target="44" edge="1">
                    <mxGeometry width="50" height="50" relative="1" as="geometry">
                        <mxPoint x="6660" y="2810" as="sourcePoint"/>
                        <mxPoint x="6690" y="2620" as="targetPoint"/>
                        <Array as="points">
                            <mxPoint x="6660" y="2570"/>
                        </Array>
                    </mxGeometry>
                </mxCell>
                <mxCell id="47" value="" style="rounded=0;whiteSpace=wrap;html=1;fontSize=18;" parent="1" vertex="1">
                    <mxGeometry x="6450" y="2850" width="1290" height="630" as="geometry"/>
                </mxCell>
                <mxCell id="48" value="&lt;font color=&quot;#000000&quot;&gt;Metamask&amp;nbsp;&lt;br&gt;Wallet&lt;/font&gt;" style="rounded=0;whiteSpace=wrap;html=1;fontSize=18;fillColor=#ffe6cc;strokeColor=#d79b00;" parent="1" vertex="1">
                    <mxGeometry x="6600" y="2850" width="120" height="60" as="geometry"/>
                </mxCell>
                <mxCell id="49" value="&lt;font style=&quot;font-size: 25px&quot;&gt;Blockchain (Ethereum) Network&lt;/font&gt;" style="text;html=1;strokeColor=none;fillColor=none;align=center;verticalAlign=middle;whiteSpace=wrap;rounded=0;fontSize=18;" parent="1" vertex="1">
                    <mxGeometry x="7250" y="2800" width="490" height="50" as="geometry"/>
                </mxCell>
                <mxCell id="50" value="&lt;font color=&quot;#000000&quot;&gt;Smart Contracts&lt;/font&gt;" style="rounded=1;whiteSpace=wrap;html=1;fontSize=25;fillColor=#d5e8d4;strokeColor=#82b366;" parent="1" vertex="1">
                    <mxGeometry x="6815" y="2850" width="550" height="130" as="geometry"/>
                </mxCell>
                <mxCell id="51" value="&lt;font color=&quot;#000000&quot;&gt;Smart Contracts&lt;/font&gt;" style="rounded=1;whiteSpace=wrap;html=1;fontSize=25;fillColor=#d5e8d4;strokeColor=#82b366;" parent="1" vertex="1">
                    <mxGeometry x="6810" y="3080" width="550" height="120" as="geometry"/>
                </mxCell>
                <mxCell id="52" value="" style="endArrow=classic;html=1;rounded=0;fontSize=25;exitX=1;exitY=0.5;exitDx=0;exitDy=0;entryX=-0.001;entryY=0.457;entryDx=0;entryDy=0;entryPerimeter=0;" parent="1" source="44" target="53" edge="1">
                    <mxGeometry width="50" height="50" relative="1" as="geometry">
                        <mxPoint x="7300" y="2580" as="sourcePoint"/>
                        <mxPoint x="7810" y="2350" as="targetPoint"/>
                    </mxGeometry>
                </mxCell>
                <mxCell id="53" value="" style="whiteSpace=wrap;html=1;aspect=fixed;fontSize=25;" parent="1" vertex="1">
                    <mxGeometry x="7820" y="2010" width="1180" height="1180" as="geometry"/>
                </mxCell>
                <mxCell id="54" value="Landing Page&amp;nbsp;" style="text;html=1;strokeColor=none;fillColor=none;align=center;verticalAlign=middle;whiteSpace=wrap;rounded=0;fontSize=25;" parent="1" vertex="1">
                    <mxGeometry x="7510" y="2240" width="340" height="30" as="geometry"/>
                </mxCell>
                <mxCell id="55" value="Cryptonite" style="rounded=0;whiteSpace=wrap;html=1;fontSize=25;" parent="1" vertex="1">
                    <mxGeometry x="7860" y="2020" width="130" height="50" as="geometry"/>
                </mxCell>
                <mxCell id="56" value="About me" style="text;html=1;strokeColor=none;fillColor=none;align=center;verticalAlign=middle;whiteSpace=wrap;rounded=0;fontSize=25;" parent="1" vertex="1">
                    <mxGeometry x="8160" y="2030" width="120" height="50" as="geometry"/>
                </mxCell>
                <mxCell id="57" value="Transaction" style="text;html=1;strokeColor=none;fillColor=none;align=center;verticalAlign=middle;whiteSpace=wrap;rounded=0;fontSize=25;" parent="1" vertex="1">
                    <mxGeometry x="8360" y="2030" width="140" height="50" as="geometry"/>
                </mxCell>
                <mxCell id="58" value="NFT" style="text;html=1;strokeColor=none;fillColor=none;align=center;verticalAlign=middle;whiteSpace=wrap;rounded=0;fontSize=25;" parent="1" vertex="1">
                    <mxGeometry x="8560" y="2030" width="140" height="50" as="geometry"/>
                </mxCell>
                <mxCell id="59" value="Login" style="rounded=1;whiteSpace=wrap;html=1;fontSize=25;" parent="1" vertex="1">
                    <mxGeometry x="8820" y="2030" width="110" height="60" as="geometry"/>
                </mxCell>
                <mxCell id="60" value="Create NFT&lt;br&gt;&amp;nbsp;&lt;br&gt;&lt;br&gt;Marketplace" style="rounded=0;whiteSpace=wrap;html=1;fontSize=25;" parent="1" vertex="1">
                    <mxGeometry x="8560" y="2070" width="150" height="160" as="geometry"/>
                </mxCell>
                <mxCell id="61" value="&lt;span style=&quot;font-size: 30px&quot;&gt;ETHEREUM EVERYWHERE, FOR EVERYONE&lt;br&gt;&lt;/span&gt;" style="text;html=1;strokeColor=none;fillColor=none;align=center;verticalAlign=middle;whiteSpace=wrap;rounded=0;" parent="1" vertex="1">
                    <mxGeometry x="7860" y="2130" width="500" height="350" as="geometry"/>
                </mxCell>
                <mxCell id="62" value="&lt;font style=&quot;font-size: 20px&quot;&gt;Explore the evergrowing world of Ethereum and NFTs with Cryptonite&lt;/font&gt;" style="text;html=1;strokeColor=none;fillColor=none;align=center;verticalAlign=middle;whiteSpace=wrap;rounded=0;fontSize=30;" parent="1" vertex="1">
                    <mxGeometry x="7835" y="2340" width="550" height="80" as="geometry"/>
                </mxCell>
                <mxCell id="63" value="CONNECT WITH METAMASK" style="rounded=1;whiteSpace=wrap;html=1;fontSize=20;fillColor=#fa6800;fontColor=#000000;strokeColor=#C73500;" parent="1" vertex="1">
                    <mxGeometry x="7930" y="2450" width="360" height="60" as="geometry"/>
                </mxCell>
                <mxCell id="64" value="&lt;span style=&quot;font-size: 35px&quot;&gt;Features Cryptonite can offer&lt;/span&gt;" style="text;html=1;strokeColor=none;fillColor=none;align=center;verticalAlign=middle;whiteSpace=wrap;rounded=0;fontSize=20;" parent="1" vertex="1">
                    <mxGeometry x="8060" y="2550" width="650" height="120" as="geometry"/>
                </mxCell>
                <mxCell id="65" value="Gain ETH with NFTs&lt;br style=&quot;font-size: 25px&quot;&gt;&lt;span style=&quot;font-size: 25px&quot;&gt;CREATE your own NFTs&lt;br&gt;&lt;/span&gt;&lt;font style=&quot;font-size: 25px&quot;&gt;SELL on Cryptonite Marketplace&lt;br&gt;&lt;/font&gt;&lt;font style=&quot;font-size: 25px&quot;&gt;BUY from other sellers&lt;/font&gt;" style="rounded=1;whiteSpace=wrap;html=1;fontSize=35;" parent="1" vertex="1">
                    <mxGeometry x="7840" y="2670" width="340" height="320" as="geometry"/>
                </mxCell>
                <mxCell id="66" value="&lt;span style=&quot;font-size: 35px&quot;&gt;Guaranteed Security&lt;br&gt;sth sth&amp;nbsp;&lt;/span&gt;" style="rounded=1;whiteSpace=wrap;html=1;fontSize=25;" parent="1" vertex="1">
                    <mxGeometry x="8250" y="2670" width="335" height="320" as="geometry"/>
                </mxCell>
                <mxCell id="67" value="Fastest Transaction" style="rounded=1;whiteSpace=wrap;html=1;fontSize=35;" parent="1" vertex="1">
                    <mxGeometry x="8650" y="2670" width="330" height="320" as="geometry"/>
                </mxCell>
                <mxCell id="68" value="ALL THE TRANSACTION RECORDS ARE DISPLAYED HERE!" style="rounded=0;whiteSpace=wrap;html=1;fontSize=35;" parent="1" vertex="1">
                    <mxGeometry x="7812.5" y="3100" width="1210" height="560" as="geometry"/>
                </mxCell>
                <mxCell id="69" value="JSON&amp;nbsp;" style="text;html=1;strokeColor=none;fillColor=none;align=center;verticalAlign=middle;whiteSpace=wrap;rounded=0;fontSize=35;" parent="1" vertex="1">
                    <mxGeometry x="7120" y="2700" width="60" height="30" as="geometry"/>
                </mxCell>
                <mxCell id="70" value="WRITTEN IN SOLIDITY" style="text;html=1;strokeColor=none;fillColor=none;align=center;verticalAlign=middle;whiteSpace=wrap;rounded=0;fontSize=35;" parent="1" vertex="1">
                    <mxGeometry x="6890" y="3290" width="380" height="110" as="geometry"/>
                </mxCell>
                <mxCell id="71" value="" style="rounded=0;whiteSpace=wrap;html=1;fontSize=35;" parent="1" vertex="1">
                    <mxGeometry x="7090" y="290" width="1180" height="1120" as="geometry"/>
                </mxCell>
                <mxCell id="72" value="NAVIGATION BAR" style="rounded=0;whiteSpace=wrap;html=1;fontSize=35;" parent="1" vertex="1">
                    <mxGeometry x="7090" y="290" width="1170" height="110" as="geometry"/>
                </mxCell>
                <mxCell id="74" value="METAMASK ACCOUNT CARD" style="rounded=1;whiteSpace=wrap;html=1;fontSize=35;fillColor=#f0a30a;fontColor=#000000;strokeColor=#BD7000;" parent="1" vertex="1">
                    <mxGeometry x="7790" y="520" width="370" height="230" as="geometry"/>
                </mxCell>
                <mxCell id="75" value="" style="endArrow=classic;html=1;fontSize=35;entryX=0.5;entryY=1;entryDx=0;entryDy=0;strokeWidth=10;" parent="1" target="71" edge="1">
                    <mxGeometry width="50" height="50" relative="1" as="geometry">
                        <mxPoint x="8420" y="1990" as="sourcePoint"/>
                        <mxPoint x="7960" y="1330" as="targetPoint"/>
                    </mxGeometry>
                </mxCell>
                <mxCell id="78" value="TRANSACTION FORM" style="rounded=0;whiteSpace=wrap;html=1;fontSize=35;" parent="1" vertex="1">
                    <mxGeometry x="7120" y="450" width="600" height="620" as="geometry"/>
                </mxCell>
                <mxCell id="79" value="FOOTER" style="rounded=0;whiteSpace=wrap;html=1;fontSize=35;" parent="1" vertex="1">
                    <mxGeometry x="7090" y="1330" width="1170" height="80" as="geometry"/>
                </mxCell>
                <mxCell id="80" value="DISPLAY THAT USER'S EXECUTED TRANSACTIONS" style="rounded=1;whiteSpace=wrap;html=1;fontSize=35;" parent="1" vertex="1">
                    <mxGeometry x="7190" y="1120" width="980" height="160" as="geometry"/>
                </mxCell>
                <mxCell id="81" value="" style="endArrow=classic;html=1;fontSize=35;strokeWidth=10;exitX=0.684;exitY=0.001;exitDx=0;exitDy=0;exitPerimeter=0;" parent="1" source="53" edge="1">
                    <mxGeometry width="50" height="50" relative="1" as="geometry">
                        <mxPoint x="9110" y="1380" as="sourcePoint"/>
                        <mxPoint x="9830" y="1280" as="targetPoint"/>
                        <Array as="points">
                            <mxPoint x="8620" y="1280"/>
                        </Array>
                    </mxGeometry>
                </mxCell>
                <mxCell id="83" value="" style="rounded=0;whiteSpace=wrap;html=1;" parent="1" vertex="1">
                    <mxGeometry x="9830" y="370" width="1520" height="1320" as="geometry"/>
                </mxCell>
                <mxCell id="84" value="&lt;font style=&quot;font-size: 35px&quot;&gt;USERS UPLOAD THEIR NFTs HERE&lt;/font&gt;" style="rounded=1;whiteSpace=wrap;html=1;fillColor=#0050ef;fontColor=#ffffff;strokeColor=#001DBC;" parent="1" vertex="1">
                    <mxGeometry x="9920" y="560" width="520" height="600" as="geometry"/>
                </mxCell>
                <mxCell id="85" value="&lt;font style=&quot;font-size: 40px&quot;&gt;Users create their own NFTs + indicate the price in ETH -&amp;gt; UPLOAD ON MARKETPLACE&lt;/font&gt;" style="text;html=1;strokeColor=none;fillColor=none;align=center;verticalAlign=middle;whiteSpace=wrap;rounded=0;" parent="1" vertex="1">
                    <mxGeometry x="10580" y="2040" width="680" height="120" as="geometry"/>
                </mxCell>
                <mxCell id="86" value="" style="endArrow=classic;html=1;fontSize=40;exitX=0.478;exitY=1.006;exitDx=0;exitDy=0;exitPerimeter=0;strokeWidth=10;" parent="1" source="83" edge="1">
                    <mxGeometry width="50" height="50" relative="1" as="geometry">
                        <mxPoint x="10360" y="1930" as="sourcePoint"/>
                        <mxPoint x="10557" y="2570" as="targetPoint"/>
                    </mxGeometry>
                </mxCell>
                <mxCell id="87" value="NAVIGATION BAR" style="rounded=0;whiteSpace=wrap;html=1;fontSize=35;" parent="1" vertex="1">
                    <mxGeometry x="7100" y="300" width="1170" height="110" as="geometry"/>
                </mxCell>
                <mxCell id="88" value="NAVIGATION BAR" style="rounded=0;whiteSpace=wrap;html=1;fontSize=35;" parent="1" vertex="1">
                    <mxGeometry x="9830" y="370" width="1520" height="110" as="geometry"/>
                </mxCell>
                <mxCell id="89" value="NFT NAME&lt;br&gt;&lt;br&gt;PRICE (need conditionals)&lt;br&gt;&lt;br&gt;" style="text;html=1;strokeColor=none;fillColor=none;align=center;verticalAlign=middle;whiteSpace=wrap;rounded=0;fontSize=35;" parent="1" vertex="1">
                    <mxGeometry x="10710" y="570" width="480" height="520" as="geometry"/>
                </mxCell>
                <mxCell id="90" value="Choose File" style="rounded=1;whiteSpace=wrap;html=1;fontSize=35;" parent="1" vertex="1">
                    <mxGeometry x="9960" y="1180" width="240" height="60" as="geometry"/>
                </mxCell>
                <mxCell id="91" value="Upload&amp;nbsp;" style="rounded=1;whiteSpace=wrap;html=1;fontSize=35;" parent="1" vertex="1">
                    <mxGeometry x="10720" y="1030" width="480" height="110" as="geometry"/>
                </mxCell>
                <mxCell id="92" value="" style="rounded=1;whiteSpace=wrap;html=1;fontSize=35;" parent="1" vertex="1">
                    <mxGeometry x="9870" y="1360" width="320" height="320" as="geometry"/>
                </mxCell>
                <mxCell id="93" value="" style="rounded=1;whiteSpace=wrap;html=1;fontSize=35;" parent="1" vertex="1">
                    <mxGeometry x="10370" y="1360" width="330" height="330" as="geometry"/>
                </mxCell>
                <mxCell id="94" value="" style="rounded=1;whiteSpace=wrap;html=1;fontSize=35;" parent="1" vertex="1">
                    <mxGeometry x="10890" y="1360" width="340" height="330" as="geometry"/>
                </mxCell>
                <mxCell id="95" value="YOUR NFT COLLECTION" style="text;html=1;strokeColor=none;fillColor=none;align=center;verticalAlign=middle;whiteSpace=wrap;rounded=0;fontSize=35;" parent="1" vertex="1">
                    <mxGeometry x="10310" y="1260" width="580" height="90" as="geometry"/>
                </mxCell>
                <mxCell id="96" value="" style="rounded=0;whiteSpace=wrap;html=1;fontSize=35;" parent="1" vertex="1">
                    <mxGeometry x="9730" y="2570" width="1680" height="1530" as="geometry"/>
                </mxCell>
                <mxCell id="97" value="NAVIGATION BAR" style="rounded=0;whiteSpace=wrap;html=1;fontSize=35;" parent="1" vertex="1">
                    <mxGeometry x="9730" y="2580" width="1670" height="110" as="geometry"/>
                </mxCell>
                <mxCell id="98" value="TITLE&amp;nbsp;&lt;br&gt;&lt;br&gt;THE NFT ITSELF&lt;br&gt;&lt;br&gt;OWNER&lt;br&gt;&lt;br&gt;PRICE&lt;br&gt;&lt;br&gt;" style="rounded=1;whiteSpace=wrap;html=1;fontSize=35;" parent="1" vertex="1">
                    <mxGeometry x="9850" y="2790" width="530" height="620" as="geometry"/>
                </mxCell>
                <mxCell id="99" value="PURCHASE" style="rounded=1;whiteSpace=wrap;html=1;fontSize=35;fillColor=#d80073;fontColor=#ffffff;strokeColor=#A50040;" parent="1" vertex="1">
                    <mxGeometry x="9910" y="3260" width="410" height="110" as="geometry"/>
                </mxCell>
                <mxCell id="100" value="" style="whiteSpace=wrap;html=1;" vertex="1" parent="1">
                    <mxGeometry x="6570" y="290" width="120" height="60" as="geometry"/>
                </mxCell>
            </root>
        </mxGraphModel>
    </diagram>
</mxfile>